<svg width="504" height="428" viewBox="0 0 504 428" fill="none" xmlns="http://www.w3.org/2000/svg">
<g clip-path="url(#clip0_5_5172)">
<path opacity="0.1" d="M285.077 58.2713C252.771 58.3244 221.676 47.0595 191.933 34.5452C162.19 22.0309 132.676 8.01747 100.971 2.0793C80.5807 -1.73771 57.394 -1.38684 41.4551 12.4724C26.1125 25.8054 21.6697 47.8728 19.526 68.2604C17.914 83.5975 17.1706 99.6949 23.2082 113.724C27.4004 123.464 34.5747 131.491 39.6312 140.773C57.2816 173.063 46.6672 214.312 29.5138 247.352C21.4709 262.854 12.0492 277.712 5.96842 294.102C-0.112407 310.492 -2.60611 329.077 3.59573 345.254C9.74139 361.288 23.6231 372.925 38.5205 380.873C68.7734 397.045 103.996 400.511 138.273 401.845C214.147 404.806 290.168 398.767 365.986 392.728C394.044 390.495 422.226 388.246 449.705 381.776C464.961 378.188 480.671 372.861 491.488 361.187C505.219 346.365 508.028 322.166 498.036 304.772C481.28 275.596 437.098 270.094 425.083 238.527C418.458 221.148 424.171 201.218 432.586 184.467C450.634 148.524 481.699 116.329 482.222 76.1283C482.581 48.5214 466.426 21.5897 442.297 9.59106C417.006 -2.97638 382.522 0.255856 364.802 23.6789C346.581 47.809 313.601 58.2341 285.077 58.2713Z" fill="#00BF8F"/>
<path d="M428.956 343.085C428.956 343.085 423.644 338.773 418.38 341.841C418.38 341.841 420.001 345.679 426.665 345.318L428.956 343.085Z" fill="#00BF8F"/>
<path d="M429.63 343.313C429.63 343.313 431.246 350.883 427.192 356.035C427.192 356.035 424.755 352.914 427.192 345.27L429.63 343.313Z" fill="#00BF8F"/>
<path d="M436.234 336.046C436.234 336.046 435.84 329.608 424.02 331.745C424.02 331.745 423.964 335.897 428.113 337.864C432.262 339.831 434.163 338.173 436.234 336.046Z" fill="#00BF8F"/>
<path d="M436.977 336.004C436.977 336.004 441.973 337.976 437.517 351.612C437.517 351.612 434.22 350.708 433.627 345.28C433.035 339.852 434.79 337.981 436.977 336.004Z" fill="#00BF8F"/>
<path d="M443.65 326.87C443.65 326.87 444.328 316.275 432.249 317.36C432.249 317.36 431.384 326.929 441.519 329.417L443.65 326.87Z" fill="#00BF8F"/>
<path d="M451.632 314.909C451.632 314.909 449.977 302.9 437.902 306.478C437.902 306.478 437.859 316.86 449.662 317.769L451.632 314.909Z" fill="#00BF8F"/>
<path d="M457.467 302.544C457.467 302.544 454.692 290.848 442.729 294.346C442.729 294.346 445.577 304.867 456.671 304.702L457.467 302.544Z" fill="#00BF8F"/>
<path d="M463.007 290.465C463.007 290.465 460.298 278.328 448.745 281.959C448.745 281.959 452.6 293.49 462.242 292.517L463.007 290.465Z" fill="#00BF8F"/>
<path d="M466.577 278.993C466.577 278.993 464.494 264.15 453.724 267.436C453.724 267.436 456.853 280.939 465.786 281.157L466.577 278.993Z" fill="#00BF8F"/>
<path d="M469.926 265.134C469.926 265.134 467.424 250.174 456.529 254.501C456.529 254.501 460.799 268.642 469.153 267.18L469.926 265.134Z" fill="#00BF8F"/>
<path d="M471.984 252.237C471.984 252.237 468.012 237.272 459.589 237.676C459.589 237.676 463.647 253.481 471.279 255.219L471.984 252.237Z" fill="#00BF8F"/>
<path d="M473.315 239.648C473.315 239.648 468.993 221.637 462.138 223.024C462.138 223.024 465.129 236.793 473.073 242.455L473.315 239.648Z" fill="#00BF8F"/>
<path d="M474.067 224.63C474.067 224.63 470.013 209.622 463.262 209.021C463.262 209.021 466.02 223.79 473.933 228.532L474.067 224.63Z" fill="#00BF8F"/>
<path d="M474.884 210.616C474.884 210.616 469.832 195.593 465.376 195.253C465.376 195.253 467.571 210.047 474.452 213.083L474.884 210.616Z" fill="#00BF8F"/>
<path d="M475.441 197.581C475.441 197.581 472.334 181.266 467.869 179.91C467.869 179.91 468.479 193.259 474.992 198.804L475.441 197.581Z" fill="#00BF8F"/>
<path d="M477.127 180.505C477.127 180.505 473.859 167.497 470.242 165.514C470.242 165.514 470.955 180.851 476.293 183.684L477.127 180.505Z" fill="#00BF8F"/>
<path d="M478.523 169.341L479.18 146.407C479.18 146.407 472.416 163.696 478.034 173.366L478.523 169.341Z" fill="#00BF8F"/>
<path d="M483.743 146.53C483.743 146.53 488.614 129.784 489.794 128.848C489.794 128.848 480.243 139.714 481.176 153.691L483.743 146.53Z" fill="#00BF8F"/>
<path d="M443.978 326.791C443.978 326.791 452.544 325.414 452.289 340.304C452.289 340.304 444.549 341.857 442.021 329.539L443.978 326.791Z" fill="#00BF8F"/>
<path d="M452.039 314.505C452.039 314.505 461.936 314.468 461.114 329.709C461.114 329.709 452.804 331.538 450.063 317.386L452.039 314.505Z" fill="#00BF8F"/>
<path d="M457.562 303.527C457.562 303.527 466.547 298.344 472.295 311.725C472.295 311.725 463.997 316.041 456.767 305.691L457.562 303.527Z" fill="#00BF8F"/>
<path d="M463.206 290.577C463.206 290.577 472.407 285.064 477.81 298.131C477.81 298.131 468.224 302.193 462.446 292.645L463.206 290.577Z" fill="#00BF8F"/>
<path d="M466.46 279.317C466.46 279.317 475.316 268.913 482.382 279.434C482.382 279.434 473.336 287.999 466.054 281.635L466.46 279.317Z" fill="#00BF8F"/>
<path d="M469.425 264.777C469.425 264.777 478.333 254.145 485.343 265.267C485.343 265.267 475.346 274.001 469.105 267.01L469.425 264.777Z" fill="#00BF8F"/>
<path d="M471.089 251.811C471.089 251.811 477.952 238.521 486.034 241.487C486.034 241.487 478.912 255.559 471.167 254.932L471.089 251.811Z" fill="#00BF8F"/>
<path d="M473.112 239.563C473.112 239.563 480.027 222.828 486.57 225.741C486.57 225.741 481.582 238.606 472.934 242.386L473.112 239.563Z" fill="#00BF8F"/>
<path d="M473.591 223.758C473.591 223.758 480.701 210.584 487.361 212.195C487.361 212.195 481.548 225.555 472.9 227.57L473.591 223.758Z" fill="#00BF8F"/>
<path d="M474.145 210.324C474.145 210.324 479.655 195.54 484.133 195.439C484.133 195.439 481.488 210.117 474.516 212.833L474.145 210.324Z" fill="#00BF8F"/>
<path d="M475.225 197.262C475.225 197.262 481.349 182.292 485.952 182.26C485.952 182.26 482.819 195.061 475.428 198.575L475.225 197.262Z" fill="#00BF8F"/>
<path d="M476.146 181.441C476.146 181.441 480.727 169.054 484.521 167.651C484.521 167.651 482.231 182.749 476.651 184.726L476.146 181.441Z" fill="#00BF8F"/>
<path d="M479.067 168.89L489.306 149.703C489.306 149.703 486.682 168.629 477.572 172.563L479.067 168.89Z" fill="#00BF8F"/>
<path d="M486.095 148.077C486.095 148.077 497.993 137.976 498.425 136.344C498.425 136.344 492.374 150.49 481.137 152.989L486.095 148.077Z" fill="#00BF8F"/>
<path d="M486.808 143.531C486.808 143.531 500.469 127.376 503.957 127.392C503.957 127.392 492.69 128.024 486.479 142.67L486.808 143.531Z" fill="#00BF8F"/>
<path d="M476.28 183.839L476.777 183.918C479.344 159.204 483.087 144.579 487.314 142.787L487.149 142.202C482.668 144.116 478.899 158.518 476.28 183.839Z" fill="#444053"/>
<path d="M472.502 242.944L473.254 243.018C473.414 240.711 473.535 238.351 473.618 235.996C474.335 215.539 475.446 196.752 476.906 182.669L476.474 182.005C475.009 196.119 473.583 215.47 472.866 235.958C472.783 238.298 472.662 240.647 472.502 242.944Z" fill="#444053"/>
<path d="M414.936 354.876C415.065 354.807 428.303 347.534 442.042 330.193C450.092 320.036 456.78 308.373 461.858 295.638C468.211 279.727 472.083 260.174 473.38 241.179L472.598 241.631C469.68 284.267 453.901 313.399 441.355 329.268C427.75 346.455 414.659 353.653 414.529 353.722L414.936 354.876Z" fill="#444053"/>
<path d="M449.212 45.3098H33.9351C32.9539 45.3098 32.0129 45.7892 31.3192 46.6426C30.6254 47.496 30.2356 48.6535 30.2356 49.8604V63.1189H452.912V49.8604C452.912 48.6535 452.522 47.496 451.828 46.6426C451.134 45.7892 450.193 45.3098 449.212 45.3098Z" fill="#3F3D56"/>
<path d="M30.2356 63.119V361.484C30.2356 363.917 31.0215 366.251 32.4204 367.972C33.8194 369.693 35.7167 370.66 37.6951 370.66H445.452C447.43 370.66 449.328 369.693 450.727 367.972C452.126 366.251 452.912 363.917 452.912 361.484V63.119H30.2356Z" fill="white"/>
<path opacity="0.8" d="M36.9302 56.2079C37.8849 56.2079 38.6589 55.2559 38.6589 54.0815C38.6589 52.907 37.8849 51.955 36.9302 51.955C35.9754 51.955 35.2014 52.907 35.2014 54.0815C35.2014 55.2559 35.9754 56.2079 36.9302 56.2079Z" fill="#FA5959"/>
<path opacity="0.8" d="M41.6843 56.2079C42.6391 56.2079 43.413 55.2559 43.413 54.0815C43.413 52.907 42.6391 51.955 41.6843 51.955C40.7295 51.955 39.9556 52.907 39.9556 54.0815C39.9556 55.2559 40.7295 56.2079 41.6843 56.2079Z" fill="#FED253"/>
<path opacity="0.8" d="M46.4382 56.2079C47.393 56.2079 48.1669 55.2559 48.1669 54.0815C48.1669 52.907 47.393 51.955 46.4382 51.955C45.4835 51.955 44.7095 52.907 44.7095 54.0815C44.7095 55.2559 45.4835 56.2079 46.4382 56.2079Z" fill="#8CCF4D"/>
<path opacity="0.05" d="M409.222 112.868H69.5254V296.605H409.222V112.868Z" fill="black"/>
<path d="M406.629 114.261H72.1184V293.947H406.629V114.261Z" fill="#3F3D56"/>
<path d="M163.309 160.506C156.728 160.506 150.294 162.907 144.821 167.405C139.349 171.903 135.083 178.296 132.564 185.776C130.046 193.255 129.387 201.486 130.671 209.426C131.955 217.367 135.124 224.661 139.778 230.386C144.432 236.11 150.362 240.009 156.817 241.589C163.273 243.168 169.964 242.357 176.044 239.259C182.125 236.161 187.323 230.914 190.979 224.183C194.636 217.451 196.588 209.537 196.588 201.441C196.588 196.065 195.727 190.742 194.054 185.776C192.382 180.809 189.931 176.297 186.841 172.495C183.75 168.694 180.082 165.679 176.044 163.622C172.007 161.565 167.68 160.506 163.309 160.506ZM169.278 202.424V221.807H157.514V202.424C155.886 200.908 154.686 198.802 154.084 196.402C153.482 194.002 153.507 191.43 154.157 189.05C154.807 186.669 156.049 184.599 157.706 183.133C159.364 181.667 161.354 180.878 163.396 180.878C165.438 180.878 167.428 181.667 169.086 183.133C170.743 184.599 171.985 186.669 172.635 189.05C173.285 191.43 173.31 194.002 172.708 196.402C172.106 198.802 170.906 200.908 169.278 202.424Z" fill="#00BF8F"/>
<path opacity="0.05" d="M163.309 160.506C156.728 160.506 150.294 162.907 144.821 167.405C139.349 171.903 135.083 178.296 132.564 185.776C130.046 193.255 129.387 201.486 130.671 209.426C131.955 217.367 135.124 224.661 139.778 230.386C144.432 236.11 150.362 240.009 156.817 241.589C163.273 243.168 169.964 242.357 176.044 239.259C182.125 236.161 187.323 230.914 190.979 224.183C194.636 217.451 196.588 209.537 196.588 201.441C196.588 196.065 195.727 190.742 194.054 185.776C192.382 180.809 189.931 176.297 186.841 172.495C183.75 168.694 180.082 165.679 176.044 163.622C172.007 161.565 167.68 160.506 163.309 160.506ZM169.278 202.424V221.807H157.514V202.424C155.886 200.908 154.686 198.802 154.084 196.402C153.482 194.002 153.507 191.43 154.157 189.05C154.807 186.669 156.049 184.599 157.706 183.133C159.364 181.667 161.354 180.878 163.396 180.878C165.438 180.878 167.428 181.667 169.086 183.133C170.743 184.599 171.985 186.669 172.635 189.05C173.285 191.43 173.31 194.002 172.708 196.402C172.106 198.802 170.906 200.908 169.278 202.424Z" fill="black"/>
<path d="M163.309 148.81C154.847 148.81 146.575 151.897 139.539 157.68C132.503 163.463 127.019 171.683 123.78 181.3C120.542 190.917 119.694 201.499 121.345 211.708C122.996 221.917 127.071 231.295 133.055 238.656C139.039 246.016 146.663 251.029 154.962 253.059C163.262 255.09 171.865 254.048 179.683 250.064C187.501 246.081 194.183 239.335 198.885 230.68C203.586 222.025 206.096 211.85 206.096 201.441C206.096 187.482 201.588 174.095 193.564 164.225C185.54 154.355 174.657 148.81 163.309 148.81ZM170.981 202.706V227.623H155.854V202.706C153.76 200.757 152.217 198.048 151.442 194.961C150.667 191.875 150.7 188.568 151.536 185.506C152.372 182.443 153.968 179.782 156.1 177.896C158.232 176.01 160.792 174.995 163.417 174.995C166.043 174.995 168.603 176.01 170.735 177.896C172.867 179.782 174.463 182.443 175.299 185.506C176.135 188.568 176.168 191.875 175.393 194.961C174.618 198.048 173.075 200.757 170.981 202.706Z" fill="#00BF8F"/>
<path d="M362.114 194.535H223.815V212.61H362.114V194.535Z" fill="white"/>
<path d="M362.114 227.495H332.293V245.57H362.114V227.495Z" fill="#00BF8F"/>
<path d="M237.429 203.301H234.926L237.152 200.569C237.192 200.518 237.214 200.45 237.214 200.38C237.214 200.31 237.192 200.242 237.152 200.191C237.132 200.166 237.108 200.147 237.082 200.133C237.056 200.12 237.027 200.113 236.999 200.113C236.97 200.113 236.942 200.12 236.916 200.133C236.889 200.147 236.865 200.166 236.845 200.191L234.62 202.929V199.846C234.62 199.775 234.597 199.708 234.556 199.658C234.516 199.608 234.461 199.58 234.403 199.58C234.347 199.581 234.292 199.61 234.252 199.659C234.212 199.709 234.189 199.776 234.187 199.846V202.929L231.966 200.175C231.946 200.15 231.922 200.131 231.896 200.117C231.869 200.104 231.841 200.097 231.813 200.097C231.784 200.097 231.756 200.104 231.729 200.117C231.703 200.131 231.679 200.15 231.659 200.175C231.619 200.226 231.597 200.294 231.597 200.364C231.597 200.434 231.619 200.502 231.659 200.553L233.885 203.285H231.378C231.321 203.287 231.267 203.315 231.227 203.365C231.186 203.414 231.163 203.481 231.162 203.551C231.162 203.622 231.185 203.689 231.225 203.739C231.266 203.789 231.321 203.817 231.378 203.817H233.885L231.659 206.555C231.619 206.605 231.597 206.673 231.597 206.743C231.597 206.814 231.619 206.882 231.659 206.932C231.701 206.98 231.756 207.007 231.813 207.007C231.869 207.007 231.924 206.98 231.966 206.932L234.187 204.194V207.272C234.187 207.343 234.21 207.411 234.251 207.46C234.291 207.51 234.346 207.538 234.403 207.538C234.461 207.538 234.516 207.51 234.556 207.46C234.597 207.411 234.62 207.343 234.62 207.272V204.194L236.845 206.932C236.887 206.98 236.942 207.007 236.999 207.007C237.056 207.007 237.111 206.98 237.152 206.932C237.192 206.882 237.214 206.814 237.214 206.743C237.214 206.673 237.192 206.605 237.152 206.555L234.926 203.817H237.429C237.486 203.817 237.541 203.789 237.582 203.739C237.622 203.689 237.645 203.622 237.645 203.551C237.642 203.483 237.617 203.42 237.577 203.373C237.537 203.327 237.484 203.301 237.429 203.301Z" fill="#00BF8F"/>
<path d="M246.505 203.301H244.003L246.228 200.569C246.268 200.518 246.29 200.45 246.29 200.38C246.29 200.31 246.268 200.242 246.228 200.191C246.208 200.166 246.184 200.147 246.158 200.133C246.132 200.12 246.103 200.113 246.075 200.113C246.046 200.113 246.018 200.12 245.992 200.133C245.965 200.147 245.942 200.166 245.921 200.191L243.696 202.929V199.846C243.696 199.775 243.673 199.708 243.632 199.658C243.592 199.608 243.537 199.58 243.48 199.58C243.423 199.581 243.368 199.61 243.328 199.659C243.288 199.709 243.265 199.776 243.264 199.846V202.929L241.042 200.175C241.022 200.15 240.998 200.131 240.972 200.117C240.945 200.104 240.917 200.097 240.889 200.097C240.86 200.097 240.832 200.104 240.806 200.117C240.779 200.131 240.755 200.15 240.735 200.175C240.695 200.226 240.673 200.294 240.673 200.364C240.673 200.434 240.695 200.502 240.735 200.553L242.961 203.285H240.454C240.397 203.287 240.343 203.315 240.303 203.365C240.262 203.414 240.239 203.481 240.238 203.551C240.238 203.622 240.261 203.689 240.302 203.739C240.342 203.789 240.397 203.817 240.454 203.817H242.961L240.735 206.555C240.695 206.605 240.673 206.673 240.673 206.743C240.673 206.814 240.695 206.882 240.735 206.932C240.777 206.98 240.832 207.007 240.889 207.007C240.946 207.007 241.001 206.98 241.042 206.932L243.264 204.194V207.272C243.264 207.343 243.286 207.411 243.327 207.46C243.367 207.51 243.422 207.538 243.48 207.538C243.537 207.538 243.592 207.51 243.632 207.46C243.673 207.411 243.696 207.343 243.696 207.272V204.194L245.921 206.932C245.963 206.98 246.018 207.007 246.075 207.007C246.132 207.007 246.187 206.98 246.228 206.932C246.268 206.882 246.29 206.814 246.29 206.743C246.29 206.673 246.268 206.605 246.228 206.555L244.003 203.817H246.505C246.562 203.817 246.617 203.789 246.658 203.739C246.698 203.689 246.721 203.622 246.721 203.551C246.718 203.483 246.693 203.42 246.653 203.373C246.613 203.327 246.56 203.301 246.505 203.301Z" fill="#00BF8F"/>
<path d="M255.581 203.301H253.078L255.304 200.569C255.344 200.518 255.366 200.45 255.366 200.38C255.366 200.31 255.344 200.242 255.304 200.191C255.284 200.166 255.26 200.147 255.234 200.133C255.207 200.12 255.179 200.113 255.151 200.113C255.122 200.113 255.094 200.12 255.067 200.133C255.041 200.147 255.017 200.166 254.997 200.191L252.771 202.929V199.846C252.771 199.775 252.749 199.708 252.708 199.658C252.668 199.608 252.613 199.58 252.555 199.58C252.498 199.581 252.444 199.61 252.404 199.659C252.363 199.709 252.34 199.776 252.339 199.846V202.929L250.118 200.175C250.098 200.15 250.074 200.131 250.047 200.117C250.021 200.104 249.993 200.097 249.964 200.097C249.936 200.097 249.908 200.104 249.881 200.117C249.855 200.131 249.831 200.15 249.811 200.175C249.771 200.226 249.749 200.294 249.749 200.364C249.749 200.434 249.771 200.502 249.811 200.553L252.037 203.285H249.53C249.473 203.287 249.419 203.315 249.378 203.365C249.338 203.414 249.315 203.481 249.314 203.551C249.314 203.622 249.337 203.689 249.377 203.739C249.418 203.789 249.473 203.817 249.53 203.817H252.037L249.811 206.555C249.771 206.605 249.749 206.673 249.749 206.743C249.749 206.814 249.771 206.882 249.811 206.932C249.853 206.98 249.907 207.007 249.964 207.007C250.021 207.007 250.076 206.98 250.118 206.932L252.339 204.194V207.272C252.339 207.343 252.362 207.411 252.403 207.46C252.443 207.51 252.498 207.538 252.555 207.538C252.613 207.538 252.668 207.51 252.708 207.46C252.749 207.411 252.771 207.343 252.771 207.272V204.194L254.997 206.932C255.039 206.98 255.094 207.007 255.151 207.007C255.208 207.007 255.262 206.98 255.304 206.932C255.344 206.882 255.366 206.814 255.366 206.743C255.366 206.673 255.344 206.605 255.304 206.555L253.078 203.817H255.581C255.638 203.817 255.693 203.789 255.733 203.739C255.774 203.689 255.797 203.622 255.797 203.551C255.793 203.483 255.769 203.42 255.729 203.373C255.689 203.327 255.636 203.301 255.581 203.301Z" fill="#00BF8F"/>
<path d="M264.657 203.301H262.154L264.38 200.569C264.42 200.518 264.442 200.45 264.442 200.38C264.442 200.31 264.42 200.242 264.38 200.191C264.36 200.166 264.336 200.147 264.31 200.133C264.283 200.12 264.255 200.113 264.227 200.113C264.198 200.113 264.17 200.12 264.143 200.133C264.117 200.147 264.093 200.166 264.073 200.191L261.847 202.929V199.846C261.847 199.775 261.825 199.708 261.784 199.658C261.744 199.608 261.689 199.58 261.631 199.58C261.574 199.581 261.52 199.61 261.48 199.659C261.439 199.709 261.416 199.776 261.415 199.846V202.929L259.194 200.175C259.174 200.15 259.15 200.131 259.123 200.117C259.097 200.104 259.069 200.097 259.04 200.097C259.012 200.097 258.984 200.104 258.957 200.117C258.931 200.131 258.907 200.15 258.887 200.175C258.847 200.226 258.825 200.294 258.825 200.364C258.825 200.434 258.847 200.502 258.887 200.553L261.113 203.285H258.606C258.549 203.287 258.495 203.315 258.454 203.365C258.414 203.414 258.391 203.481 258.39 203.551C258.39 203.622 258.413 203.689 258.453 203.739C258.494 203.789 258.549 203.817 258.606 203.817H261.113L258.887 206.555C258.847 206.605 258.825 206.673 258.825 206.743C258.825 206.814 258.847 206.882 258.887 206.932C258.929 206.98 258.983 207.007 259.04 207.007C259.097 207.007 259.152 206.98 259.194 206.932L261.415 204.194V207.272C261.415 207.343 261.438 207.411 261.478 207.46C261.519 207.51 261.574 207.538 261.631 207.538C261.689 207.538 261.744 207.51 261.784 207.46C261.825 207.411 261.847 207.343 261.847 207.272V204.194L264.073 206.932C264.115 206.98 264.17 207.007 264.227 207.007C264.284 207.007 264.338 206.98 264.38 206.932C264.42 206.882 264.442 206.814 264.442 206.743C264.442 206.673 264.42 206.605 264.38 206.555L262.154 203.817H264.657C264.714 203.817 264.769 203.789 264.809 203.739C264.85 203.689 264.873 203.622 264.873 203.551C264.869 203.483 264.845 203.42 264.805 203.373C264.765 203.327 264.712 203.301 264.657 203.301Z" fill="#00BF8F"/>
<path d="M273.732 203.301H271.23L273.456 200.569C273.496 200.518 273.518 200.45 273.518 200.38C273.518 200.31 273.496 200.242 273.456 200.191C273.436 200.166 273.412 200.147 273.386 200.133C273.359 200.12 273.331 200.113 273.302 200.113C273.274 200.113 273.246 200.12 273.219 200.133C273.193 200.147 273.169 200.166 273.149 200.191L270.923 202.929V199.846C270.923 199.775 270.901 199.708 270.86 199.658C270.819 199.608 270.765 199.58 270.707 199.58C270.65 199.581 270.596 199.61 270.556 199.659C270.515 199.709 270.492 199.776 270.491 199.846V202.929L268.27 200.175C268.25 200.15 268.226 200.131 268.199 200.117C268.173 200.104 268.145 200.097 268.116 200.097C268.088 200.097 268.059 200.104 268.033 200.117C268.007 200.131 267.983 200.15 267.963 200.175C267.923 200.226 267.901 200.294 267.901 200.364C267.901 200.434 267.923 200.502 267.963 200.553L270.189 203.285H267.682C267.625 203.287 267.571 203.315 267.53 203.365C267.49 203.414 267.467 203.481 267.466 203.551C267.466 203.622 267.489 203.689 267.529 203.739C267.57 203.789 267.625 203.817 267.682 203.817H270.189L267.963 206.555C267.923 206.605 267.901 206.673 267.901 206.743C267.901 206.814 267.923 206.882 267.963 206.932C268.004 206.98 268.059 207.007 268.116 207.007C268.173 207.007 268.228 206.98 268.27 206.932L270.491 204.194V207.272C270.491 207.343 270.514 207.411 270.554 207.46C270.595 207.51 270.65 207.538 270.707 207.538C270.765 207.538 270.819 207.51 270.86 207.46C270.901 207.411 270.923 207.343 270.923 207.272V204.194L273.149 206.932C273.191 206.98 273.245 207.007 273.302 207.007C273.359 207.007 273.414 206.98 273.456 206.932C273.496 206.882 273.518 206.814 273.518 206.743C273.518 206.673 273.496 206.605 273.456 206.555L271.23 203.817H273.732C273.79 203.817 273.845 203.789 273.885 203.739C273.926 203.689 273.949 203.622 273.949 203.551C273.945 203.483 273.921 203.42 273.881 203.373C273.841 203.327 273.788 203.301 273.732 203.301Z" fill="#00BF8F"/>
<path d="M282.808 203.301H280.306L282.532 200.569C282.571 200.518 282.594 200.45 282.594 200.38C282.594 200.31 282.571 200.242 282.532 200.191C282.511 200.166 282.488 200.147 282.461 200.133C282.435 200.12 282.407 200.113 282.378 200.113C282.35 200.113 282.321 200.12 282.295 200.133C282.269 200.147 282.245 200.166 282.225 200.191L279.999 202.929V199.846C279.999 199.775 279.976 199.708 279.936 199.658C279.895 199.608 279.84 199.58 279.783 199.58C279.726 199.581 279.672 199.61 279.631 199.659C279.591 199.709 279.568 199.776 279.567 199.846V202.929L277.345 200.175C277.325 200.15 277.301 200.131 277.275 200.117C277.249 200.104 277.22 200.097 277.192 200.097C277.163 200.097 277.135 200.104 277.109 200.117C277.082 200.131 277.059 200.15 277.038 200.175C276.999 200.226 276.976 200.294 276.976 200.364C276.976 200.434 276.999 200.502 277.038 200.553L279.264 203.285H276.758C276.701 203.287 276.646 203.315 276.606 203.365C276.566 203.414 276.543 203.481 276.542 203.551C276.542 203.622 276.564 203.689 276.605 203.739C276.645 203.789 276.7 203.817 276.758 203.817H279.264L277.038 206.555C276.999 206.605 276.976 206.673 276.976 206.743C276.976 206.814 276.999 206.882 277.038 206.932C277.08 206.98 277.135 207.007 277.192 207.007C277.249 207.007 277.304 206.98 277.345 206.932L279.567 204.194V207.272C279.567 207.343 279.59 207.411 279.63 207.46C279.671 207.51 279.726 207.538 279.783 207.538C279.84 207.538 279.895 207.51 279.936 207.46C279.976 207.411 279.999 207.343 279.999 207.272V204.194L282.225 206.932C282.266 206.98 282.321 207.007 282.378 207.007C282.435 207.007 282.49 206.98 282.532 206.932C282.571 206.882 282.594 206.814 282.594 206.743C282.594 206.673 282.571 206.605 282.532 206.555L280.306 203.817H282.808C282.865 203.817 282.92 203.789 282.961 203.739C283.001 203.689 283.024 203.622 283.024 203.551C283.021 203.483 282.997 203.42 282.957 203.373C282.916 203.327 282.863 203.301 282.808 203.301Z" fill="#00BF8F"/>
<path d="M291.884 203.301H289.382L291.607 200.569C291.647 200.518 291.67 200.45 291.67 200.38C291.67 200.31 291.647 200.242 291.607 200.191C291.587 200.166 291.563 200.147 291.537 200.133C291.511 200.12 291.483 200.113 291.454 200.113C291.425 200.113 291.397 200.12 291.371 200.133C291.345 200.147 291.321 200.166 291.301 200.191L289.075 202.929V199.846C289.075 199.775 289.052 199.708 289.012 199.658C288.971 199.608 288.916 199.58 288.859 199.58C288.802 199.581 288.747 199.61 288.707 199.659C288.667 199.709 288.644 199.776 288.643 199.846V202.929L286.421 200.175C286.401 200.15 286.377 200.131 286.351 200.117C286.325 200.104 286.296 200.097 286.268 200.097C286.239 200.097 286.211 200.104 286.185 200.117C286.158 200.131 286.135 200.15 286.114 200.175C286.075 200.226 286.052 200.294 286.052 200.364C286.052 200.434 286.075 200.502 286.114 200.553L288.34 203.285H285.834C285.777 203.287 285.722 203.315 285.682 203.365C285.642 203.414 285.619 203.481 285.617 203.551C285.617 203.622 285.64 203.689 285.681 203.739C285.721 203.789 285.776 203.817 285.834 203.817H288.34L286.114 206.555C286.075 206.605 286.052 206.673 286.052 206.743C286.052 206.814 286.075 206.882 286.114 206.932C286.156 206.98 286.211 207.007 286.268 207.007C286.325 207.007 286.38 206.98 286.421 206.932L288.643 204.194V207.272C288.643 207.343 288.665 207.411 288.706 207.46C288.747 207.51 288.801 207.538 288.859 207.538C288.916 207.538 288.971 207.51 289.012 207.46C289.052 207.411 289.075 207.343 289.075 207.272V204.194L291.301 206.932C291.342 206.98 291.397 207.007 291.454 207.007C291.511 207.007 291.566 206.98 291.607 206.932C291.647 206.882 291.67 206.814 291.67 206.743C291.67 206.673 291.647 206.605 291.607 206.555L289.382 203.817H291.884C291.941 203.817 291.996 203.789 292.037 203.739C292.077 203.689 292.1 203.622 292.1 203.551C292.097 203.483 292.073 203.42 292.032 203.373C291.992 203.327 291.939 203.301 291.884 203.301Z" fill="#00BF8F"/>
<path d="M300.96 203.301H298.458L300.683 200.569C300.723 200.518 300.746 200.45 300.746 200.38C300.746 200.31 300.723 200.242 300.683 200.191C300.663 200.166 300.639 200.147 300.613 200.133C300.587 200.12 300.559 200.113 300.53 200.113C300.502 200.113 300.473 200.12 300.447 200.133C300.421 200.147 300.397 200.166 300.377 200.191L298.151 202.929V199.846C298.151 199.775 298.128 199.708 298.088 199.658C298.047 199.608 297.992 199.58 297.935 199.58C297.878 199.581 297.823 199.61 297.783 199.659C297.743 199.709 297.72 199.776 297.719 199.846V202.929L295.497 200.175C295.477 200.15 295.453 200.131 295.427 200.117C295.401 200.104 295.372 200.097 295.344 200.097C295.315 200.097 295.287 200.104 295.261 200.117C295.234 200.131 295.21 200.15 295.19 200.175C295.15 200.226 295.128 200.294 295.128 200.364C295.128 200.434 295.15 200.502 295.19 200.553L297.416 203.285H294.909C294.852 203.287 294.798 203.315 294.758 203.365C294.718 203.414 294.694 203.481 294.693 203.551C294.693 203.622 294.716 203.689 294.757 203.739C294.797 203.789 294.852 203.817 294.909 203.817H297.416L295.19 206.555C295.15 206.605 295.128 206.673 295.128 206.743C295.128 206.814 295.15 206.882 295.19 206.932C295.232 206.98 295.287 207.007 295.344 207.007C295.401 207.007 295.456 206.98 295.497 206.932L297.719 204.194V207.272C297.719 207.343 297.741 207.411 297.782 207.46C297.822 207.51 297.877 207.538 297.935 207.538C297.992 207.538 298.047 207.51 298.088 207.46C298.128 207.411 298.151 207.343 298.151 207.272V204.194L300.377 206.932C300.418 206.98 300.473 207.007 300.53 207.007C300.587 207.007 300.642 206.98 300.683 206.932C300.723 206.882 300.746 206.814 300.746 206.743C300.746 206.673 300.723 206.605 300.683 206.555L298.458 203.817H300.96C301.017 203.817 301.072 203.789 301.113 203.739C301.153 203.689 301.176 203.622 301.176 203.551C301.173 203.483 301.149 203.42 301.108 203.373C301.068 203.327 301.015 203.301 300.96 203.301Z" fill="#00BF8F"/>
<path d="M310.036 203.301H307.533L309.759 200.569C309.799 200.518 309.821 200.45 309.821 200.38C309.821 200.31 309.799 200.242 309.759 200.191C309.739 200.166 309.715 200.147 309.689 200.133C309.662 200.12 309.634 200.113 309.606 200.113C309.577 200.113 309.549 200.12 309.523 200.133C309.496 200.147 309.472 200.166 309.452 200.191L307.227 202.929V199.846C307.227 199.775 307.204 199.708 307.163 199.658C307.123 199.608 307.068 199.58 307.01 199.58C306.953 199.581 306.899 199.61 306.859 199.659C306.819 199.709 306.795 199.776 306.794 199.846V202.929L304.573 200.175C304.553 200.15 304.529 200.131 304.503 200.117C304.476 200.104 304.448 200.097 304.419 200.097C304.391 200.097 304.363 200.104 304.336 200.117C304.31 200.131 304.286 200.15 304.266 200.175C304.226 200.226 304.204 200.294 304.204 200.364C304.204 200.434 304.226 200.502 304.266 200.553L306.492 203.285H303.985C303.928 203.287 303.874 203.315 303.834 203.365C303.793 203.414 303.77 203.481 303.769 203.551C303.769 203.622 303.792 203.689 303.832 203.739C303.873 203.789 303.928 203.817 303.985 203.817H306.492L304.266 206.555C304.226 206.605 304.204 206.673 304.204 206.743C304.204 206.814 304.226 206.882 304.266 206.932C304.308 206.98 304.362 207.007 304.419 207.007C304.476 207.007 304.531 206.98 304.573 206.932L306.794 204.194V207.272C306.794 207.343 306.817 207.411 306.858 207.46C306.898 207.51 306.953 207.538 307.01 207.538C307.068 207.538 307.123 207.51 307.163 207.46C307.204 207.411 307.227 207.343 307.227 207.272V204.194L309.452 206.932C309.494 206.98 309.549 207.007 309.606 207.007C309.663 207.007 309.718 206.98 309.759 206.932C309.799 206.882 309.821 206.814 309.821 206.743C309.821 206.673 309.799 206.605 309.759 206.555L307.533 203.817H310.036C310.093 203.817 310.148 203.789 310.189 203.739C310.229 203.689 310.252 203.622 310.252 203.551C310.249 203.483 310.224 203.42 310.184 203.373C310.144 203.327 310.091 203.301 310.036 203.301Z" fill="#00BF8F"/>
<path d="M319.112 203.301H316.609L318.835 200.569C318.875 200.518 318.897 200.45 318.897 200.38C318.897 200.31 318.875 200.242 318.835 200.191C318.815 200.166 318.791 200.147 318.765 200.133C318.738 200.12 318.71 200.113 318.682 200.113C318.653 200.113 318.625 200.12 318.598 200.133C318.572 200.147 318.548 200.166 318.528 200.191L316.302 202.929V199.846C316.302 199.775 316.28 199.708 316.239 199.658C316.199 199.608 316.144 199.58 316.086 199.58C316.029 199.581 315.975 199.61 315.935 199.659C315.894 199.709 315.871 199.776 315.87 199.846V202.929L313.649 200.175C313.629 200.15 313.605 200.131 313.578 200.117C313.552 200.104 313.524 200.097 313.495 200.097C313.467 200.097 313.439 200.104 313.412 200.117C313.386 200.131 313.362 200.15 313.342 200.175C313.302 200.226 313.28 200.294 313.28 200.364C313.28 200.434 313.302 200.502 313.342 200.553L315.568 203.285H313.061C313.004 203.287 312.95 203.315 312.909 203.365C312.869 203.414 312.846 203.481 312.845 203.551C312.845 203.622 312.868 203.689 312.908 203.739C312.949 203.789 313.004 203.817 313.061 203.817H315.568L313.342 206.555C313.302 206.605 313.28 206.673 313.28 206.743C313.28 206.814 313.302 206.882 313.342 206.932C313.384 206.98 313.438 207.007 313.495 207.007C313.552 207.007 313.607 206.98 313.649 206.932L315.87 204.194V207.272C315.87 207.343 315.893 207.411 315.934 207.46C315.974 207.51 316.029 207.538 316.086 207.538C316.144 207.538 316.199 207.51 316.239 207.46C316.28 207.411 316.302 207.343 316.302 207.272V204.194L318.528 206.932C318.57 206.98 318.625 207.007 318.682 207.007C318.739 207.007 318.793 206.98 318.835 206.932C318.875 206.882 318.897 206.814 318.897 206.743C318.897 206.673 318.875 206.605 318.835 206.555L316.609 203.817H319.112C319.169 203.817 319.224 203.789 319.264 203.739C319.305 203.689 319.328 203.622 319.328 203.551C319.324 203.483 319.3 203.42 319.26 203.373C319.22 203.327 319.167 203.301 319.112 203.301Z" fill="#00BF8F"/>
<path d="M328.188 203.301H325.685L327.911 200.569C327.951 200.518 327.973 200.45 327.973 200.38C327.973 200.31 327.951 200.242 327.911 200.191C327.891 200.166 327.867 200.147 327.841 200.133C327.814 200.12 327.786 200.113 327.757 200.113C327.729 200.113 327.701 200.12 327.674 200.133C327.648 200.147 327.624 200.166 327.604 200.191L325.378 202.929V199.846C325.378 199.775 325.356 199.708 325.315 199.658C325.275 199.608 325.22 199.58 325.162 199.58C325.105 199.581 325.051 199.61 325.011 199.659C324.97 199.709 324.947 199.776 324.946 199.846V202.929L322.725 200.175C322.705 200.15 322.681 200.131 322.654 200.117C322.628 200.104 322.6 200.097 322.571 200.097C322.543 200.097 322.515 200.104 322.488 200.117C322.462 200.131 322.438 200.15 322.418 200.175C322.378 200.226 322.356 200.294 322.356 200.364C322.356 200.434 322.378 200.502 322.418 200.553L324.644 203.285H322.137C322.08 203.287 322.026 203.315 321.985 203.365C321.945 203.414 321.922 203.481 321.921 203.551C321.921 203.622 321.944 203.689 321.984 203.739C322.025 203.789 322.08 203.817 322.137 203.817H324.644L322.418 206.555C322.378 206.605 322.356 206.673 322.356 206.743C322.356 206.814 322.378 206.882 322.418 206.932C322.46 206.98 322.514 207.007 322.571 207.007C322.628 207.007 322.683 206.98 322.725 206.932L324.946 204.194V207.272C324.946 207.343 324.969 207.411 325.009 207.46C325.05 207.51 325.105 207.538 325.162 207.538C325.22 207.538 325.275 207.51 325.315 207.46C325.356 207.411 325.378 207.343 325.378 207.272V204.194L327.604 206.932C327.646 206.98 327.7 207.007 327.757 207.007C327.814 207.007 327.869 206.98 327.911 206.932C327.951 206.882 327.973 206.814 327.973 206.743C327.973 206.673 327.951 206.605 327.911 206.555L325.685 203.817H328.188C328.245 203.817 328.3 203.789 328.34 203.739C328.381 203.689 328.404 203.622 328.404 203.551C328.4 203.483 328.376 203.42 328.336 203.373C328.296 203.327 328.243 203.301 328.188 203.301Z" fill="#00BF8F"/>
<path d="M397.765 267.972C397.753 267.33 397.688 266.69 397.57 266.064C397.182 264.267 396.304 262.093 394.861 261.551C393.37 260.989 391.931 260.241 390.565 259.318C390.305 253.619 391.369 247.787 390.21 242.263C389.778 240.243 389.065 238.308 388.875 236.24C388.637 233.667 389.208 230.924 388.374 228.553C387.717 226.682 386.273 225.363 384.722 224.672C383.17 223.981 381.498 223.795 379.851 223.609C377.776 223.402 371.06 222.423 368.718 224.704C368.556 224.858 368.411 225.037 368.286 225.236C368.234 225.323 368.188 225.416 368.147 225.512L368.126 225.555C368.079 225.665 368.04 225.781 368.009 225.9C367.976 226.031 367.952 226.164 367.936 226.299C367.936 226.341 367.936 226.384 367.936 226.427C367.936 226.469 367.936 226.613 367.936 226.708V226.852C367.936 226.948 367.936 227.043 367.936 227.144C367.936 227.245 367.936 227.219 367.936 227.256C367.966 227.734 368.022 228.213 368.022 228.686C368.027 228.922 368.009 229.157 367.97 229.388C367.826 230.015 367.582 230.6 367.253 231.11L367.175 231.248C367.127 231.333 367.08 231.413 367.037 231.498C366.993 231.583 366.959 231.647 366.924 231.721C366.89 231.796 366.855 231.844 366.825 231.913C366.783 232 366.746 232.091 366.713 232.184C366.713 232.237 366.665 232.285 366.648 232.338C366.594 232.482 366.55 232.631 366.518 232.785C366.417 233.247 366.408 233.732 366.492 234.199C366.609 234.795 366.809 235.362 367.084 235.873C367.192 236.091 367.309 236.304 367.43 236.517L367.732 237.022C367.676 237.515 367.646 238.012 367.642 238.51C367.642 240.175 367.949 241.818 368.541 243.315C369.132 244.813 369.992 246.125 371.056 247.154C371.227 249.399 371.208 251.66 371 253.901C370.961 254.368 370.913 254.842 370.861 255.309C370.81 255.777 370.771 256.085 370.719 256.474C370.086 256.585 369.442 256.525 368.83 256.298C368.548 256.143 368.26 256.007 367.966 255.889C366.708 255.501 365.425 257.042 364.18 256.575C364.18 256.649 364.145 256.718 364.124 256.787C363.864 256.589 363.565 256.48 363.259 256.474C362.52 256.431 361.92 255.772 361.384 255.15L359.737 253.241C359.63 253.124 359.534 252.992 359.452 252.848C359.363 252.641 359.297 252.421 359.253 252.194C358.976 251.094 358.307 250.216 357.658 249.382C357.535 249.191 357.372 249.046 357.187 248.962C357.116 248.949 357.043 248.949 356.971 248.962C356.927 248.888 356.879 248.817 356.828 248.749C356.717 248.591 356.597 248.442 356.47 248.303C355.683 247.41 355.605 246.644 354.923 245.645C354.327 244.691 353.787 243.688 353.306 242.641C353.25 242.083 353.172 241.509 353.077 240.929C352.859 239.602 352.542 238.303 352.131 237.048L351.266 234.693L351.167 234.815C350.54 233.667 349.87 233.04 349.27 233.189C348.263 233.444 347.766 235.847 347.925 238.989L348.271 242.178C348.271 242.258 348.301 242.338 348.319 242.418C348.257 242.796 348.225 243.18 348.224 243.566C348.224 244.012 348.561 244.342 348.738 244.741C349.022 245.281 349.172 245.911 349.17 246.554C349.149 246.782 349.092 247 349.084 247.223C349.107 247.723 349.248 248.203 349.49 248.606L351.651 253.071L352.083 254.007L352.109 254.049C352.245 254.376 352.444 254.657 352.688 254.868C352.773 255.986 353.014 257.078 353.401 258.095C353.475 258.297 353.557 258.488 353.643 258.68C354.224 259.855 354.908 260.947 355.683 261.939L356.712 263.358C357.727 264.751 358.743 266.149 359.845 267.436C360.24 267.952 360.716 268.362 361.245 268.642C361.505 268.77 361.787 268.811 362.063 268.761C362.339 268.712 362.6 268.574 362.819 268.361C362.819 269.02 362.819 269.679 362.819 270.338C362.979 270.35 363.134 270.415 363.267 270.525C363.401 270.636 363.508 270.788 363.577 270.966C363.647 271.144 363.677 271.342 363.663 271.539C363.65 271.736 363.594 271.926 363.501 272.087C362.594 274.953 361.678 277.845 360.303 280.412C361.273 281.119 362.173 281.963 362.983 282.927C363.508 283.643 363.976 284.422 364.379 285.25C364.418 285.643 364.448 286.031 364.465 286.42C364.785 292.756 362.793 299.046 361.008 305.085C360.493 306.797 359.932 308.588 359.975 310.369C359.636 310.626 359.313 310.912 359.007 311.225C359.361 312.363 359.223 313.378 359.184 314.595C359.171 315.325 359.049 316.046 358.825 316.722C358.637 317.19 358.43 317.646 358.203 318.088C357.083 320.518 356.837 323.404 356.612 326.179C356.478 327.854 357.006 329.901 356.388 331.4C355.32 333.973 354.374 336.716 354.227 339.576C354.222 340.22 354.155 340.86 354.028 341.485C353.894 342.016 353.656 342.468 353.535 342.989C353.411 343.687 353.381 344.406 353.449 345.115C353.531 347.664 353.223 350.208 352.541 352.617C352.001 354.514 351.405 356.545 351.828 358.496C350.785 359.844 350.142 361.583 350 363.435C349.989 363.909 349.943 364.38 349.862 364.844C349.73 365.318 349.556 365.772 349.343 366.199C348.473 368.148 348.066 370.359 348.168 372.579C346.871 374.743 346.223 377.411 345.838 380.064C345.453 382.717 345.285 385.417 344.792 388.038C344.135 391.504 342.947 395.008 342.713 398.559C341.313 399.659 340.708 401.791 340.44 403.806C340.172 405.821 340.129 407.937 339.442 409.797C339.087 410.765 338.577 411.631 338.24 412.62C338.004 413.408 337.83 414.221 337.722 415.05C337.514 416.347 337.333 417.793 337.588 419.037C337.221 419.515 336.793 419.915 336.321 420.222C336.39 419.893 336.447 419.563 336.494 419.228C335.379 420.472 333.357 420.036 332.466 421.53C332.199 422.012 332.095 422.602 332.175 423.177C332.256 423.752 332.515 424.265 332.898 424.608C333.177 424.817 333.478 424.976 333.793 425.081C335.954 425.932 338.175 426.788 340.397 426.336C340.659 426.301 340.914 426.202 341.145 426.044C341.433 425.782 341.671 425.444 341.84 425.055C342.173 424.406 342.506 423.758 342.834 423.109C343.63 423.401 344.44 423.634 345.259 423.806C345.341 424.656 345.402 425.507 345.432 426.357C345.864 426.464 346.443 426.495 346.646 426.001C346.708 425.814 346.733 425.612 346.72 425.411C346.72 425.034 346.763 424.534 346.789 424.023H346.875C348.194 424.089 349.506 423.763 350.7 423.072C350.238 418.362 351.763 413.758 353.086 409.303C354.482 404.614 355.679 399.84 356.885 395.066C357.749 391.706 358.704 388.453 359.551 385.088C360.617 380.835 361.688 376.582 362.762 372.329C363.229 370.458 363.7 368.608 364.236 366.747C365.364 362.982 366.703 359.317 368.242 355.78C368.675 354.775 369.107 353.781 369.461 352.739C369.893 351.468 370.2 350.139 370.546 348.826C371.299 346.132 372.206 343.506 373.26 340.969C373.29 340.9 373.312 340.836 373.342 340.772C373.692 342.532 374.042 344.318 374.276 346.088C374.592 348.259 374.616 350.479 374.349 352.659C374.142 354.142 373.748 355.61 373.796 357.114C373.861 359.193 374.764 361.08 375.209 363.084C375.496 364.584 375.658 366.116 375.693 367.656C375.814 370.048 376.869 372.733 376.125 374.95C373.813 381.973 374.933 389.904 373.615 397.278C372.936 401.063 370.857 404.619 371.021 408.49C371.137 411.236 371.333 413.976 371.609 416.708C371.676 417.571 371.858 418.413 372.149 419.202C372.322 419.617 372.52 420.015 372.741 420.393C372.551 420.483 372.391 420.722 372.253 421.227C371.899 422.556 372.253 424.204 373.213 424.949C373.604 425.206 374.025 425.385 374.462 425.48C375.049 425.686 375.657 425.789 376.268 425.788C376.458 425.776 376.647 425.747 376.834 425.703C377.502 426.049 378.185 426.35 378.879 426.607C378.879 426.825 378.913 427.043 378.935 427.261C378.936 427.375 378.956 427.487 378.995 427.591C379.034 427.694 379.09 427.787 379.159 427.862C379.267 427.924 379.387 427.949 379.505 427.936H381.852C381.852 427.697 381.852 427.452 381.852 427.213C382.12 427.248 382.392 427.212 382.649 427.11C382.906 427.007 383.142 426.84 383.343 426.618C383.551 426.292 383.698 425.915 383.775 425.512C384.415 422.843 385.05 420.173 385.681 417.501C386.438 414.547 386.753 411.449 386.61 408.357C385.776 398.559 387.609 388.729 387.012 378.905C386.653 373 386.9 367.063 387.747 361.234C387.941 359.916 388.179 358.576 388.266 357.263C388.456 354.786 388.222 352.282 388.365 349.82C388.412 348.959 388.508 348.103 388.594 347.247C389.186 341.935 389.497 336.581 389.523 331.219C389.51 329.442 389.421 327.668 389.255 325.903C389.706 325.762 390.115 325.467 390.435 325.052C390.82 324.436 390.72 323.569 390.716 322.782C390.716 320.9 391.36 319.125 391.879 317.349C392.544 314.9 393.09 312.404 393.512 309.875C393.959 307.836 394.203 305.739 394.238 303.628C394.238 303.415 394.23 303.203 394.212 302.99C394.375 302.851 394.511 302.67 394.61 302.458C394.723 302.147 394.793 301.815 394.817 301.475C394.973 300.119 395.133 298.758 395.289 297.397C395.404 296.423 395.518 295.45 395.63 294.479L397.004 282.682C397.121 281.656 397.242 280.636 397.359 279.615L397.717 276.563C397.756 276.202 397.8 275.84 397.83 275.5C398.884 273.331 397.877 270.439 397.765 267.972ZM386.299 312.139C385.789 310.651 385.314 309.125 385.435 307.519H385.387C385.501 307.025 385.481 306.499 385.331 306.02C385.197 305.632 384.964 305.303 384.821 304.915C384.668 304.441 384.589 303.936 384.588 303.426C384.48 300.193 384.688 296.955 385.206 293.782C385.262 293.41 385.322 293.033 385.379 292.661C385.56 292.532 385.726 292.373 385.871 292.188C386.099 291.869 386.286 291.511 386.429 291.124C386.917 289.918 387.362 288.69 387.773 287.44C387.907 287.036 388.101 286.568 388.434 286.467C388.365 289.577 388.624 292.751 387.596 295.558C387.4 296.011 387.255 296.493 387.163 296.993C387.068 297.786 387.336 298.588 387.241 299.375C387.194 299.784 387.051 300.162 386.995 300.566C386.952 300.764 386.953 300.973 386.997 301.171C387.041 301.369 387.127 301.549 387.246 301.693C387.303 301.742 387.365 301.782 387.431 301.81C387.405 302.023 387.384 302.241 387.367 302.448C387.332 302.884 387.315 303.293 387.293 303.548C387.194 304.849 387.155 306.155 387.176 307.461C387.176 308.87 387.22 310.279 387.202 311.714C387.218 312.126 387.162 312.538 387.038 312.921C386.952 313.118 386.842 313.298 386.71 313.452C386.584 312.974 386.446 312.554 386.299 312.139Z" fill="url(#paint0_linear_5_5172)"/>
<path d="M352.184 250.455C353.502 250.123 353.951 246.13 353.186 241.536C352.421 236.943 350.731 233.489 349.413 233.821C348.094 234.154 347.645 238.147 348.41 242.74C349.175 247.334 350.865 250.788 352.184 250.455Z" fill="#FBBEBE"/>
<path d="M372.322 421.328C371.968 422.647 372.322 424.295 373.282 425.012C373.67 425.267 374.089 425.447 374.522 425.544C375.108 425.748 375.715 425.85 376.324 425.847C377.072 425.804 377.789 425.443 378.537 425.315C378.623 425.289 378.715 425.304 378.792 425.358C378.83 425.407 378.858 425.466 378.874 425.531C378.89 425.595 378.895 425.663 378.887 425.73C378.895 426.253 378.927 426.775 378.982 427.293C378.983 427.407 379.003 427.52 379.042 427.623C379.081 427.727 379.137 427.819 379.207 427.894C379.315 427.956 379.434 427.981 379.553 427.968H381.895C381.948 425.437 381.723 422.908 381.225 420.451C381.193 420.263 381.134 420.083 381.052 419.919C380.854 419.652 380.593 419.466 380.305 419.388C379.732 419.095 379.113 418.962 378.494 419C377.738 419.122 377.107 419.723 376.463 420.222C375.819 420.722 374.941 421.163 374.159 420.908C373.377 420.653 372.724 419.85 372.322 421.328Z" fill="#3F3D56"/>
<path d="M337.929 418.994C337.27 419.862 336.463 420.537 335.565 420.972L335.167 421.206C335.112 421.232 335.065 421.278 335.033 421.339C335.026 421.38 335.026 421.423 335.033 421.464C335.041 421.506 335.055 421.545 335.077 421.578C335.407 422.207 335.896 422.687 336.469 422.943C337.042 423.199 337.667 423.218 338.249 422.997C338.506 422.918 338.745 422.765 338.945 422.551C339.274 422.07 339.463 421.467 339.481 420.839C339.611 420.191 339.589 419.51 339.416 418.877C338.815 417.213 338.595 417.968 337.929 418.994Z" fill="#FBBEBE"/>
<path d="M346.91 425.544C346.923 425.745 346.898 425.947 346.836 426.134C346.633 426.623 346.067 426.597 345.626 426.49C345.56 424.686 345.382 422.892 345.095 421.121C344.256 421.073 343.651 422.051 343.202 422.928L342.044 425.188C341.876 425.577 341.64 425.915 341.352 426.177C341.12 426.332 340.867 426.432 340.604 426.469C338.392 426.921 336.157 426.065 334.022 425.214C333.708 425.11 333.407 424.953 333.128 424.746C332.747 424.402 332.489 423.89 332.408 423.317C332.328 422.744 332.43 422.155 332.695 421.674C333.59 420.185 335.6 420.61 336.715 419.377C336.598 420.245 336.407 421.095 336.144 421.913C337.635 421.636 338.638 419.957 339.839 418.835C340.141 418.52 340.505 418.307 340.894 418.218C341.185 418.188 341.478 418.226 341.758 418.33C343.144 418.759 344.44 419.543 345.561 420.632C346.015 421.073 346.724 421.695 346.923 422.375C347.135 423.189 346.91 424.677 346.91 425.544Z" fill="#3F3D56"/>
<path d="M376.64 250.142C381.571 250.142 385.568 245.225 385.568 239.159C385.568 233.093 381.571 228.176 376.64 228.176C371.708 228.176 367.711 233.093 367.711 239.159C367.711 245.225 371.708 250.142 376.64 250.142Z" fill="#FBBEBE"/>
<path d="M394.23 304.005C394.194 306.105 393.951 308.192 393.508 310.22C393.085 312.739 392.54 315.224 391.874 317.663C391.36 319.433 390.716 321.209 390.72 323.085C390.72 323.867 390.824 324.733 390.435 325.35C390.089 325.783 389.652 326.09 389.173 326.238C388.934 326.316 388.713 326.462 388.529 326.664C388.344 326.866 388.201 327.119 388.11 327.402C387.704 326.656 387.401 325.834 387.211 324.967C386.436 322.047 385.716 319.111 385.05 316.158C384.989 315.988 384.963 315.803 384.973 315.617C384.984 315.432 385.031 315.253 385.111 315.095C385.22 314.978 385.348 314.889 385.487 314.835C385.93 314.612 386.335 314.292 386.684 313.888C386.847 313.71 386.982 313.495 387.081 313.256C387.207 312.875 387.264 312.465 387.25 312.054C387.25 310.645 387.25 309.242 387.22 307.833C387.202 306.532 387.242 305.232 387.341 303.936C387.341 303.681 387.38 303.272 387.414 302.836C387.479 302.001 387.609 301.034 387.976 300.709C388.525 300.258 390.167 300.864 390.79 300.97C391.861 301.151 392.95 301.363 393.996 301.613C394.148 302.397 394.227 303.2 394.23 304.005Z" fill="#3F3D56"/>
<path d="M358.177 251.455C357.831 252.306 357.001 252.715 356.362 253.252L354.17 255.102C354.024 255.264 353.852 255.388 353.666 255.467C353.48 255.546 353.282 255.577 353.086 255.559C352.907 255.478 352.744 255.354 352.605 255.194C352.466 255.035 352.355 254.842 352.277 254.629C352.279 254.615 352.279 254.6 352.277 254.586L351.824 253.651L349.663 249.196C349.422 248.797 349.283 248.32 349.261 247.824C349.261 247.596 349.326 247.383 349.343 247.154C349.349 246.512 349.198 245.883 348.911 245.347C348.738 244.948 348.392 244.618 348.401 244.172C348.384 243.585 348.467 243.001 348.643 242.455C348.87 241.95 349.195 241.523 349.589 241.211C349.792 241.03 350 240.86 350.216 240.679C350.331 240.583 350.458 240.511 350.592 240.467C350.951 240.376 351.305 240.743 351.668 240.759C353.228 242.045 353.829 244.48 355.056 246.235C355.748 247.234 355.817 248 356.599 248.893C356.725 249.031 356.846 249.18 356.962 249.334C357.117 249.541 357.248 249.774 357.351 250.025C357.494 250.482 358.354 251.019 358.177 251.455Z" fill="#3F3D56"/>
<path d="M373.502 250.147C374.146 251.822 374.647 253.661 374.462 255.501C374.423 255.999 374.295 256.48 374.086 256.909C373.463 258.084 372.158 258.297 371.021 258.366C370.782 258.341 370.541 258.376 370.312 258.467C370.084 258.558 369.872 258.705 369.69 258.898C369.538 259.169 369.464 259.495 369.479 259.824C369.494 260.153 369.597 260.467 369.772 260.716C370.138 261.195 370.591 261.56 371.095 261.779C372.893 262.752 374.833 263.555 376.787 263.331C377.694 263.225 378.576 262.901 379.479 262.736C380.464 262.605 381.453 262.537 382.444 262.534C383.619 262.481 384.791 262.337 385.962 262.194L389.065 261.816C389.235 261.819 389.399 261.746 389.527 261.609C389.756 261.279 389.463 260.796 389.177 260.546C387.531 259.047 385.435 258.015 384.497 255.761C384.065 254.698 383.931 253.433 383.611 252.284C383.291 251.136 382.781 250.099 382.582 248.93C382.476 247.904 382.429 246.87 382.44 245.836C382.45 244.793 382.142 243.783 381.575 243.008C380.957 242.301 380.063 242.12 379.224 242.077C377.158 241.966 374.959 242.572 373.493 244.363C373.1 244.847 372.763 245.427 372.357 245.862C371.951 246.298 371.397 246.426 371.665 247C371.933 247.574 372.461 247.931 372.746 248.436C373.034 248.98 373.287 249.553 373.502 250.147Z" fill="#FBBEBE"/>
<path d="M391.105 265.612C390.56 269.706 389.673 273.719 388.46 277.589C387.85 279.337 387.33 281.13 386.904 282.959C386.571 284.607 386.636 286.372 386.329 288.025C385.949 290.082 385.569 292.145 385.262 294.218C384.747 297.384 384.541 300.615 384.648 303.841C384.649 304.349 384.728 304.852 384.881 305.324C385.024 305.707 385.253 306.036 385.387 306.43C385.487 306.775 385.528 307.143 385.507 307.508C385.487 307.874 385.404 308.231 385.266 308.556C385.044 309.165 384.744 309.725 384.376 310.215C380.348 311.693 376.039 311.209 371.842 311.523C367.974 311.81 364.063 312.788 360.251 311.974C359.819 309.848 360.541 307.621 361.159 305.547C362.952 299.524 364.936 293.251 364.616 286.941C364.583 286.205 364.515 285.471 364.413 284.745C363.786 280.274 364.469 275.644 365.563 271.311C366.241 268.61 366.211 265.734 366.055 262.922C365.978 262.009 365.968 261.089 366.025 260.174C366.088 259.239 366.37 258.347 366.838 257.606C366.838 257.569 366.877 257.531 366.898 257.494C366.92 257.457 367.088 257.462 367.222 257.494C367.256 257.512 367.293 257.521 367.33 257.521C367.367 257.521 367.404 257.512 367.438 257.494L367.486 257.457C367.504 257.441 367.526 257.432 367.549 257.432C367.571 257.432 367.593 257.441 367.611 257.457C367.711 257.531 367.767 257.787 367.983 257.835C368.302 257.894 368.624 257.931 368.947 257.946C369.335 257.96 369.72 258.028 370.096 258.148H370.148C370.71 258.265 371.287 258.204 371.825 257.973C372.183 257.863 372.529 257.698 372.854 257.484C372.949 257.356 373.545 257.239 373.666 257.149C374.059 256.856 373.973 255.485 374.055 254.921C374.101 254.356 374.21 253.801 374.379 253.273C374.576 252.883 374.848 252.559 375.17 252.328C375.493 252.097 375.856 251.967 376.229 251.95C376.973 251.928 377.717 252.01 378.446 252.194C380.058 252.476 381.709 252.428 383.291 252.885C384.086 253.114 384.955 253.459 385.685 253.013C385.884 253.071 385.914 253.284 385.914 253.544C385.896 253.792 385.855 254.036 385.793 254.273C385.517 255.74 386.454 257.09 387.319 258.153C387.684 258.655 388.115 259.077 388.594 259.403C389.026 259.647 389.458 259.748 389.89 260.014C390.24 260.244 390.538 260.578 390.755 260.987C391.004 261.455 391.172 261.982 391.247 262.534C391.34 263.563 391.292 264.603 391.105 265.612Z" fill="#3F3D56"/>
<path opacity="0.1" d="M391.105 265.612C390.56 269.706 389.674 273.719 388.46 277.589C387.85 279.337 387.33 281.13 386.904 282.959C386.571 284.607 386.636 286.372 386.329 288.025C385.949 290.082 385.569 292.145 385.262 294.218C385.171 294.282 385.076 294.341 384.981 294.394C384.443 294.71 383.873 294.935 383.287 295.064C382.233 295.221 381.166 295.178 380.123 294.936L373.956 293.921C371.492 293.511 368.869 293.017 367.041 290.965C366.025 289.838 365.36 288.349 364.629 286.914C364.596 286.178 364.528 285.445 364.426 284.718C363.799 280.248 364.482 275.617 365.576 271.284C366.254 268.584 366.224 265.708 366.068 262.895C365.991 261.982 365.981 261.062 366.038 260.147C366.101 259.212 366.383 258.32 366.851 257.579C366.977 257.534 367.105 257.498 367.235 257.473C367.322 257.451 367.41 257.437 367.499 257.43H367.624C367.77 257.431 367.915 257.453 368.056 257.494C368.351 257.61 368.64 257.746 368.921 257.904H368.973C369.343 258.054 369.732 258.122 370.122 258.106C370.693 258.106 371.281 257.994 371.851 257.946C372.556 257.811 373.277 257.97 373.9 258.398C374.301 258.795 374.682 259.223 375.041 259.679C375.473 260.097 375.96 260.422 376.48 260.641C380.2 262.388 384.327 262.281 387.984 260.344C388.336 260.098 388.734 259.973 389.138 259.982C389.437 260.054 389.72 260.203 389.968 260.418C390.227 260.604 390.483 260.785 390.746 260.95C390.995 261.418 391.163 261.945 391.239 262.497C391.338 263.537 391.293 264.59 391.105 265.612Z" fill="black"/>
<path d="M394.869 262.093C393.148 261.446 391.495 260.554 389.942 259.435C389.693 259.221 389.411 259.072 389.113 258.999C388.708 258.993 388.308 259.117 387.954 259.36C384.299 261.298 380.173 261.404 376.454 259.658C375.935 259.437 375.448 259.112 375.015 258.696C374.656 258.241 374.275 257.813 373.874 257.415C372.452 256.282 370.486 257.611 368.895 256.883C368.613 256.728 368.325 256.591 368.031 256.474C366.773 256.085 365.494 257.627 364.258 257.159C363.798 258.697 363.458 260.285 363.242 261.901C363.066 263.758 362.973 265.625 362.961 267.494C362.961 268.616 362.918 269.737 362.961 270.859C363.114 270.89 363.259 270.959 363.388 271.062C363.518 271.166 363.629 271.301 363.713 271.46C363.77 271.645 363.793 271.843 363.781 272.041C363.769 272.238 363.723 272.43 363.644 272.603C362.741 275.458 361.825 278.344 360.455 280.901C361.42 281.609 362.316 282.451 363.125 283.411C364.638 285.378 365.381 288.137 367.015 289.955C368.856 292.002 371.48 292.501 373.93 292.905L380.097 293.921C381.142 294.161 382.21 294.206 383.265 294.054C383.85 293.922 384.419 293.695 384.955 293.378C385.305 293.198 385.625 292.939 385.897 292.613C386.125 292.295 386.313 291.936 386.455 291.55C386.943 290.348 387.388 289.12 387.799 287.876C387.941 287.435 388.158 286.919 388.547 286.882C390.837 284.341 392.998 281.736 395.289 279.195C396.209 278.257 397.035 277.186 397.748 276.005C398.884 273.937 397.851 271.008 397.748 268.509C397.735 267.87 397.67 267.234 397.553 266.611C397.182 264.799 396.309 262.63 394.869 262.093Z" fill="#00BF8F"/>
<path opacity="0.1" d="M358.177 251.455C357.831 252.306 357.001 252.715 356.362 253.252L354.17 255.102C354.024 255.264 353.852 255.388 353.666 255.467C353.48 255.546 353.282 255.577 353.086 255.559C352.907 255.478 352.744 255.354 352.605 255.194C352.466 255.035 352.355 254.842 352.277 254.629C352.277 254.507 352.277 254.374 352.277 254.246C352.261 253.816 352.308 253.385 352.416 252.976C352.63 252.374 352.963 251.848 353.384 251.444C354.197 250.497 355.165 249.772 356.223 249.318C356.388 249.239 356.567 249.217 356.742 249.254C356.809 249.276 356.873 249.31 356.932 249.355C357.087 249.563 357.218 249.795 357.321 250.046C357.494 250.482 358.354 251.019 358.177 251.455Z" fill="black"/>
<path d="M363.337 257.058C362.602 257.016 362.002 256.362 361.466 255.74L359.828 253.869C359.718 253.755 359.622 253.622 359.542 253.475C359.454 253.269 359.387 253.049 359.344 252.821C358.996 251.748 358.452 250.787 357.753 250.014C357.631 249.824 357.468 249.68 357.282 249.6C357.106 249.56 356.925 249.582 356.759 249.664C355.701 250.117 354.733 250.842 353.92 251.79C353.499 252.194 353.166 252.72 352.952 253.321C352.843 253.731 352.796 254.161 352.813 254.592C352.823 255.996 353.08 257.382 353.565 258.653C353.639 258.85 353.721 259.047 353.807 259.238C354.384 260.41 355.065 261.5 355.839 262.486L356.867 263.9C357.878 265.293 358.89 266.686 359.988 267.967C360.381 268.483 360.858 268.893 361.388 269.169C361.654 269.302 361.945 269.343 362.228 269.287C362.512 269.23 362.777 269.079 362.996 268.85C363.203 268.555 363.358 268.211 363.454 267.84C364.119 265.713 364.75 263.502 364.789 261.21C364.798 260.293 364.767 259.375 364.694 258.462C364.629 257.494 364.072 257.117 363.337 257.058Z" fill="#00BF8F"/>
<path d="M389.528 331.485C389.503 336.832 389.194 342.172 388.603 347.471C388.516 348.326 388.421 349.182 388.374 350.038C388.231 352.521 388.464 355.014 388.274 357.481C388.175 358.815 387.95 360.139 387.76 361.441C386.915 367.255 386.668 373.176 387.025 379.065C387.622 388.862 385.793 398.665 386.623 408.436C386.724 410.337 386.638 412.245 386.368 414.119C386.214 415.283 385.99 416.431 385.698 417.554C385.067 420.215 384.434 422.873 383.797 425.528C383.722 425.932 383.574 426.31 383.365 426.634C383.144 426.868 382.886 427.042 382.606 427.144C382.327 427.246 382.033 427.273 381.744 427.224C379.25 427.128 376.903 425.804 374.639 424.513C374.378 424.386 374.137 424.206 373.926 423.981C373.455 423.38 373.494 422.434 373.286 421.642C373.079 420.85 372.517 420.105 372.197 419.292C371.934 418.523 371.775 417.706 371.726 416.873C371.438 414.151 371.242 411.419 371.138 408.676C370.974 404.816 373.048 401.265 373.731 397.512C375.028 390.133 373.93 382.222 376.234 375.221C376.96 373.009 375.905 370.33 375.801 367.948C375.764 366.412 375.602 364.884 375.317 363.387C374.885 361.388 373.973 359.506 373.908 357.433C373.861 355.934 374.254 354.472 374.457 352.994C374.727 350.819 374.702 348.604 374.384 346.439C374.155 344.653 373.805 342.867 373.455 341.123L373.377 341.32C372.324 343.851 371.418 346.472 370.667 349.161C370.321 350.464 370.019 351.793 369.587 353.058C369.232 354.121 368.796 355.094 368.368 356.093C366.833 359.618 365.497 363.268 364.37 367.018C363.834 368.858 363.363 370.739 362.896 372.584L359.694 385.343C358.83 388.698 357.883 391.94 357.036 395.29C355.839 400.074 354.642 404.816 353.25 409.494C351.953 413.933 350.411 418.532 350.873 423.221C349.681 423.91 348.373 424.236 347.057 424.172C344.829 423.93 342.644 423.278 340.574 422.237C339.749 421.86 338.893 421.435 338.335 420.6C337.376 419.159 337.614 417.049 337.903 415.215C338.012 414.388 338.186 413.576 338.422 412.79C338.75 411.812 339.286 410.946 339.623 409.978C340.302 408.123 340.345 406.023 340.613 404.008C340.881 401.993 341.477 399.867 342.878 398.772C343.115 395.231 344.299 391.738 344.952 388.278C345.445 385.657 345.609 382.961 345.998 380.303C346.387 377.645 347.014 374.987 348.319 372.834C348.216 370.614 348.623 368.403 349.494 366.455C349.705 366.027 349.877 365.572 350.009 365.099C350.089 364.637 350.136 364.168 350.147 363.696C350.29 361.848 350.932 360.113 351.971 358.767C351.539 356.827 352.139 354.802 352.68 352.92C353.36 350.518 353.668 347.981 353.587 345.44C353.52 344.73 353.548 344.012 353.669 343.313C353.79 342.782 354.028 342.33 354.166 341.819C354.29 341.194 354.355 340.554 354.361 339.911C354.529 337.035 355.476 334.324 356.522 331.756C357.144 330.257 356.617 328.221 356.746 326.551C356.971 323.776 357.217 320.906 358.337 318.487C358.544 318.03 358.769 317.594 358.955 317.12C359.18 316.445 359.302 315.724 359.314 314.994C359.352 313.777 359.491 312.767 359.136 311.634C361.449 309.269 364.603 308.604 367.612 308.444C370.62 308.285 373.662 308.62 376.605 307.833C377.47 307.594 378.334 307.264 379.246 307.105C381.316 306.733 383.416 307.312 385.461 307.886C385.318 309.481 385.793 311.012 386.325 312.495C388.401 318.503 389.489 324.957 389.528 331.485Z" fill="#33313F"/>
<path opacity="0.1" d="M379.349 332.702L374.384 346.439C374.155 344.653 373.805 342.867 373.454 341.123L373.377 341.32V341.033L376.082 333.712L379.349 332.702Z" fill="black"/>
<path opacity="0.1" d="M394.23 304.005C393.943 304.269 393.601 304.426 393.244 304.457C392.697 304.481 392.15 304.39 391.628 304.186L387.738 302.99C387.616 302.953 387.498 302.901 387.384 302.836C387.449 302.001 387.578 301.034 387.946 300.709C388.495 300.258 390.137 300.864 390.759 300.97C391.831 301.151 392.92 301.363 393.966 301.613C394.128 302.396 394.217 303.198 394.23 304.005Z" fill="black"/>
<path d="M397.518 272.374C397.601 272.815 397.717 273.251 397.786 273.698C397.903 274.794 397.872 275.905 397.696 276.989L397.341 280.03L396.987 283.086L395.617 294.851L395.28 297.764L394.804 301.831C394.782 302.17 394.712 302.501 394.597 302.809C394.455 303.098 394.258 303.339 394.021 303.511C393.785 303.683 393.518 303.78 393.244 303.793C392.697 303.814 392.15 303.723 391.628 303.522L387.738 302.32C387.568 302.283 387.406 302.201 387.263 302.081C387.144 301.938 387.058 301.759 387.014 301.562C386.97 301.365 386.969 301.157 387.012 300.959C387.068 300.555 387.211 300.178 387.258 299.774C387.353 298.987 387.086 298.179 387.181 297.397C387.274 296.9 387.419 296.419 387.613 295.967C388.909 292.443 388.157 288.328 388.598 284.5C388.995 281.488 390.029 278.657 391.598 276.292C392.565 274.8 393.677 273.457 394.908 272.294C395.392 271.832 396.161 270.88 396.771 270.7C397.553 270.498 397.389 271.704 397.518 272.374Z" fill="#00BF8F"/>
<path d="M368.083 226.581C367.797 227.697 368.242 228.925 368.039 230.063C367.819 231.317 366.859 232.189 366.587 233.449C366.155 235.368 367.478 237.117 368.446 238.712C372.033 244.634 371.562 252.832 370.334 260.057C369.347 265.853 367.981 271.542 366.25 277.068C365.71 278.786 365.113 280.529 364.05 281.816C366.038 281.114 368.152 280.407 370.144 281.087C372.668 281.949 374.846 284.963 377.405 284.277C378.943 283.857 380.024 282.177 381.407 281.247C384 279.53 387.125 280.609 390.016 281.162C390.639 281.343 391.291 281.302 391.896 281.045C392.358 280.739 392.751 280.295 393.037 279.753C394.327 277.717 395.1 275.257 395.258 272.683C395.327 271.401 395.173 270.115 394.807 268.912C394.441 267.709 393.872 266.615 393.136 265.702C392.523 264.99 391.788 264.416 391.317 263.576C390.859 262.595 390.613 261.486 390.604 260.354C390.262 254.507 391.42 248.537 390.228 242.88C389.795 240.865 389.091 238.936 388.901 236.873C388.663 234.305 389.229 231.557 388.399 229.207C387.747 227.341 386.308 226.017 384.756 225.337C383.205 224.656 381.545 224.465 379.898 224.274C377.53 224.029 369.072 222.78 368.083 226.581Z" fill="#33313F"/>
<g opacity="0.1">
<path opacity="0.1" d="M370.334 260.057C369.352 265.829 367.993 271.495 366.272 276.999C366.57 276.271 366.821 275.506 367.058 274.745C368.791 269.22 370.157 263.531 371.142 257.734C372.374 250.504 372.845 242.317 369.258 236.389C368.394 234.975 367.283 233.444 367.322 231.785C367.002 232.287 366.754 232.851 366.587 233.455C366.155 235.374 367.478 237.123 368.446 238.718C372.033 244.634 371.562 252.832 370.334 260.057Z" fill="black"/>
<path opacity="0.1" d="M368.091 229.526C368.438 228.996 368.696 228.387 368.852 227.734C368.919 226.945 368.901 226.148 368.8 225.363C368.467 225.672 368.217 226.096 368.082 226.581C367.827 227.522 368.121 228.542 368.091 229.526Z" fill="black"/>
<path opacity="0.1" d="M393.849 277.414C393.563 277.954 393.171 278.397 392.708 278.701C392.104 278.963 391.451 279.004 390.828 278.817C387.937 278.286 384.778 277.191 382.219 278.908C380.832 279.833 379.756 281.513 378.213 281.938C375.659 282.64 373.481 279.625 370.957 278.748C369.167 278.137 367.283 278.642 365.481 279.28C365.123 280.219 364.639 281.078 364.05 281.821C366.038 281.119 368.152 280.412 370.144 281.093C372.668 281.954 374.846 284.968 377.405 284.282C378.943 283.863 380.024 282.183 381.407 281.252C384 279.535 387.125 280.614 390.016 281.167C390.639 281.348 391.291 281.307 391.896 281.05C392.358 280.744 392.751 280.3 393.037 279.758C393.82 278.488 394.425 277.064 394.826 275.548C394.537 276.198 394.211 276.822 393.849 277.414Z" fill="black"/>
</g>
</g>
<defs>
<linearGradient id="paint0_linear_5_5172" x1="332.177" y1="325.573" x2="398.301" y2="325.573" gradientUnits="userSpaceOnUse">
<stop stop-color="#808080" stop-opacity="0.25"/>
<stop offset="0.54" stop-color="#808080" stop-opacity="0.12"/>
<stop offset="1" stop-color="#808080" stop-opacity="0.1"/>
</linearGradient>
<clipPath id="clip0_5_5172">
<rect width="504" height="428" fill="white"/>
</clipPath>
</defs>
</svg>
